<svg xmlns="http://www.w3.org/2000/svg" xmlns:xlink="http://www.w3.org/1999/xlink" width="50" zoomAndPan="magnify" viewBox="0 0 37.5 37.499999" height="50" preserveAspectRatio="xMidYMid meet" version="1.0"><defs><clipPath id="id1"><path d="M 0 0 L 37.007812 0 L 37.007812 37.007812 L 0 37.007812 Z M 0 0 " clip-rule="nonzero"/></clipPath></defs><g clip-path="url(#id1)"><path fill="#000000" d="M 18.75 0.3125 C 8.394531 0.3125 0 8.707031 0 19.0625 C 0 27.847656 6.050781 35.199219 14.207031 37.234375 C 14.117188 36.980469 14.0625 36.6875 14.0625 36.324219 L 14.0625 33.117188 C 13.300781 33.117188 12.027344 33.117188 11.707031 33.117188 C 10.421875 33.117188 9.28125 32.566406 8.730469 31.542969 C 8.117188 30.402344 8.007812 28.660156 6.488281 27.59375 C 6.035156 27.242188 6.378906 26.835938 6.898438 26.890625 C 7.859375 27.164062 8.65625 27.820312 9.40625 28.800781 C 10.15625 29.78125 10.507812 30 11.902344 30 C 12.578125 30 13.589844 29.960938 14.542969 29.8125 C 15.054688 28.511719 15.941406 27.3125 17.023438 26.746094 C 10.78125 26.105469 7.800781 23 7.800781 18.78125 C 7.800781 16.964844 8.574219 15.210938 9.890625 13.730469 C 9.457031 12.261719 8.914062 9.265625 10.054688 8.125 C 12.863281 8.125 14.5625 9.945312 14.96875 10.4375 C 16.371094 9.960938 17.90625 9.6875 19.523438 9.6875 C 21.140625 9.6875 22.6875 9.960938 24.089844 10.441406 C 24.492188 9.953125 26.191406 8.125 29.007812 8.125 C 30.152344 9.265625 29.601562 12.273438 29.167969 13.742188 C 30.472656 15.21875 31.242188 16.96875 31.242188 18.78125 C 31.242188 22.996094 28.265625 26.101562 22.03125 26.746094 C 23.75 27.640625 25 30.15625 25 32.050781 L 25 36.324219 C 25 36.484375 24.964844 36.601562 24.945312 36.742188 C 32.25 34.179688 37.5 27.242188 37.5 19.0625 C 37.5 8.707031 29.105469 0.3125 18.75 0.3125 Z M 18.75 0.3125 " fill-opacity="1" fill-rule="nonzero"/></g></svg>